<svg width="36" height="36" viewBox="0 0 36 36" fill="none" xmlns="http://www.w3.org/2000/svg">
    <g clip-path="url(#clip0_2072_1026)">
        <g clip-path="url(#clip1_2072_1026)">
            <g clip-path="url(#clip2_2072_1026)">
                <g clip-path="url(#clip3_2072_1026)">
                    <mask id="mask0_2072_1026" style="mask-type:luminance" maskUnits="userSpaceOnUse" x="0" y="0" width="36" height="36">
                        <path d="M36 0H0V36H36V0Z" fill="white"/>
                    </mask>
                    <g mask="url(#mask0_2072_1026)">
                        <path d="M18 36C27.9412 36 36 27.9412 36 18C36 8.05887 27.9412 0 18 0C8.05887 0 0 8.05887 0 18C0 27.9412 8.05887 36 18 36Z" fill="#2CB5E5"/>
                        <path d="M7.68168 17.5768C7.68168 17.5768 16.6854 13.8831 19.8126 12.5764C21.0061 12.0552 25.0698 10.3934 25.0698 10.3934C25.0698 10.3934 26.9432 9.66827 26.7845 11.4357C26.7317 12.1609 26.3162 14.714 25.9007 17.471C25.2738 21.3762 24.6015 25.6439 24.6015 25.6439C24.6015 25.6439 24.4957 26.845 23.612 27.0488C22.7282 27.2603 21.2705 26.3238 21.0061 26.1123C20.7946 25.9536 17.1009 23.6121 15.7489 22.4714C15.3863 22.1617 14.9708 21.5349 15.8017 20.8022C17.675 19.0874 19.9108 16.9498 21.2705 15.5978C21.8974 14.9708 22.5167 13.5129 19.9183 15.2881C16.2247 17.8412 12.5764 20.2356 12.5764 20.2356C12.5764 20.2356 11.7454 20.7568 10.1819 20.2885C8.61831 19.8201 6.79792 19.1932 6.79792 19.1932C6.79792 19.1932 5.5516 18.4152 7.68168 17.5768Z" fill="white"/>
                    </g>
                </g>
            </g>
        </g>
    </g>
    <defs>
        <clipPath id="clip0_2072_1026">
            <rect width="36" height="36" rx="18" fill="white"/>
        </clipPath>
        <clipPath id="clip1_2072_1026">
            <rect width="36" height="36" fill="white"/>
        </clipPath>
        <clipPath id="clip2_2072_1026">
            <rect width="36" height="36" fill="white"/>
        </clipPath>
        <clipPath id="clip3_2072_1026">
            <rect width="36" height="36" fill="white"/>
        </clipPath>
    </defs>
</svg>
