<svg width="36" height="36" viewBox="0 0 36 36" fill="none" xmlns="http://www.w3.org/2000/svg">
    <g clip-path="url(#clip0_2072_1036)">
        <g clip-path="url(#clip1_2072_1036)">
            <g clip-path="url(#clip2_2072_1036)">
                <g clip-path="url(#clip3_2072_1036)">
                    <mask id="mask0_2072_1036" style="mask-type:luminance" maskUnits="userSpaceOnUse" x="0" y="0" width="36" height="36">
                        <path d="M35.745 0H0V35.745H35.745V0Z" fill="white"/>
                    </mask>
                    <g mask="url(#mask0_2072_1036)">
                        <path d="M17.8725 35.745C27.7432 35.745 35.745 27.7432 35.745 17.8725C35.745 8.00183 27.7432 0 17.8725 0C8.00183 0 0 8.00183 0 17.8725C0 27.7432 8.00183 35.745 17.8725 35.745Z" fill="url(#paint0_linear_2072_1036)"/>
                        <path d="M22.8 11.895C22.2 11.895 21.7125 12.3825 21.7125 12.9825C21.7125 13.5825 22.2 14.07 22.8 14.07C23.4 14.07 23.8875 13.5825 23.8875 12.9825C23.8875 12.3825 23.4 11.895 22.8 11.895Z" fill="white"/>
                        <path d="M17.9475 13.29C15.42 13.29 13.365 15.345 13.365 17.8725C13.365 20.4 15.42 22.455 17.9475 22.455C20.475 22.455 22.53 20.4 22.53 17.8725C22.53 15.345 20.475 13.29 17.9475 13.29ZM17.9475 20.805C16.3275 20.805 15.015 19.485 15.015 17.8725C15.015 16.26 16.335 14.94 17.9475 14.94C19.56 14.94 20.88 16.26 20.88 17.8725C20.88 19.485 19.56 20.805 17.9475 20.805Z" fill="white"/>
                        <path d="M21.585 27.1723H14.16C11.0775 27.1723 8.57251 24.6673 8.57251 21.5848V14.1598C8.57251 11.0773 11.0775 8.57227 14.16 8.57227H21.585C24.6675 8.57227 27.1725 11.0773 27.1725 14.1598V21.5848C27.1725 24.6673 24.6675 27.1723 21.585 27.1723ZM21.585 25.4248C23.7 25.4248 25.425 23.6998 25.425 21.5848V14.1598C25.425 12.0448 23.7 10.3198 21.585 10.3198H14.16C12.045 10.3198 10.32 12.0448 10.32 14.1598V21.5848C10.32 23.6998 12.045 25.4248 14.16 25.4248H21.585Z" fill="white"/>
                    </g>
                </g>
            </g>
        </g>
    </g>
    <defs>
        <linearGradient id="paint0_linear_2072_1036" x1="5.235" y1="5.235" x2="30.51" y2="30.51" gradientUnits="userSpaceOnUse">
            <stop stop-color="#FFE185"/>
            <stop offset="0.21" stop-color="#FFBB36"/>
            <stop offset="0.38" stop-color="#FF5176"/>
            <stop offset="0.52" stop-color="#F63395"/>
            <stop offset="0.74" stop-color="#A436D2"/>
            <stop offset="1" stop-color="#5F4EED"/>
        </linearGradient>
        <clipPath id="clip0_2072_1036">
            <rect width="36" height="36" rx="18" fill="white"/>
        </clipPath>
        <clipPath id="clip1_2072_1036">
            <rect width="36" height="36" fill="white"/>
        </clipPath>
        <clipPath id="clip2_2072_1036">
            <rect width="36" height="36" fill="white"/>
        </clipPath>
        <clipPath id="clip3_2072_1036">
            <rect width="36" height="36" fill="white"/>
        </clipPath>
    </defs>
</svg>
