<svg width="36" height="36" viewBox="0 0 36 36" fill="none" xmlns="http://www.w3.org/2000/svg">
    <g clip-path="url(#clip0_2072_1051)">
        <g clip-path="url(#clip1_2072_1051)">
            <g clip-path="url(#clip2_2072_1051)">
                <g clip-path="url(#clip3_2072_1051)">
                    <mask id="mask0_2072_1051" style="mask-type:luminance" maskUnits="userSpaceOnUse" x="0" y="0" width="36" height="36">
                        <path d="M36 0H0V36H36V0Z" fill="white"/>
                    </mask>
                    <g mask="url(#mask0_2072_1051)">
                        <path d="M35.9951 17.8131C35.9951 21.1279 35.9951 24.4426 35.9951 27.7574C35.9951 28.7606 35.9213 29.7541 35.7148 30.7426C35.3951 32.277 34.5492 33.477 33.359 34.4606C32.4 35.2524 31.2886 35.6803 30.064 35.8377C29.2033 35.9459 28.3328 36 27.4623 35.9951C21.0049 35.9951 14.5476 35.9951 8.09019 35.9901C7.13118 35.9951 6.17708 35.9016 5.23773 35.7098C4.14102 35.4787 3.20168 34.9623 2.37545 34.2197C1.49512 33.4279 0.82135 32.4934 0.457417 31.3524C0.25086 30.6983 0.147581 30.0295 0.0934825 29.3508C0.00495767 28.2885 0.00987584 27.2262 0.00987584 26.1639C0.00987584 20.1147 0.00987614 14.0656 0.0147942 8.01638C0.0147942 6.89507 0.118073 5.77867 0.432827 4.69669C0.659055 3.92455 1.06233 3.25078 1.56397 2.63111C2.31643 1.70652 3.22627 0.993407 4.34266 0.555702C4.97708 0.309801 5.64101 0.18685 6.31478 0.117998C7.28364 0.0147191 8.25249 0.00488281 9.22134 0.00488281C15.2951 0.00488281 21.364 0.00488281 27.4328 0.00488281C28.1361 0.00488281 28.8394 0.00980088 29.5377 0.0884894C30.8656 0.240948 32.1295 0.575374 33.2115 1.4016C34.5246 2.40488 35.3902 3.70816 35.7295 5.34097C35.9066 6.19179 35.9951 7.06228 35.9951 7.92785C35.9951 11.2279 35.9951 14.518 35.9951 17.8131Z" fill="#2B6AFF"/>
                        <path d="M22.0919 16.5051C21.8952 16.8101 21.6984 17.1199 21.5066 17.4248C20.7738 18.5806 20.0706 19.751 19.3574 20.9166C19.1312 21.2855 18.8607 21.6199 18.5066 21.8805C17.4247 22.6773 16.3083 21.8707 16.1804 20.9265C16.0919 20.3166 16.0378 19.7019 16.0279 19.0871C16.023 18.374 16.0279 17.6609 16.0279 16.9527C16.0279 16.8494 16.0181 16.7461 16.0132 16.6428C15.964 16.6428 15.9591 16.6822 15.9443 16.7019C14.5968 18.9297 13.1804 21.1183 11.8033 23.3265C11.7197 23.4592 11.6411 23.5969 11.5525 23.7297C11.5132 23.7887 11.5132 23.8281 11.5673 23.8871C12.9591 25.3281 14.6115 26.3019 16.6083 26.6068C19.0329 26.9806 21.2361 26.4346 23.2083 24.9691C23.4492 24.792 23.6656 24.5855 23.9017 24.3986C24.1919 24.1724 24.5115 24.0346 24.8952 24.1232C24.9492 24.133 24.9935 24.1576 25.0329 24.192C25.1214 24.2806 25.2099 24.3592 25.3083 24.4379C25.6033 24.6543 25.6181 24.9445 25.5394 25.2642C25.4411 25.6428 25.1804 25.9035 24.8902 26.1396C23.5525 27.251 22.0476 28.0428 20.3361 28.4019C17.0607 29.0953 14.0755 28.4363 11.4443 26.3658C9.43777 24.7871 8.164 22.7215 7.60335 20.2232C7.31318 18.9297 7.28367 17.6215 7.4804 16.3084C8.0804 12.2265 10.9919 9.13301 14.2525 7.89367C15.305 7.49039 16.4115 7.26908 17.5378 7.23465C18.7673 7.19531 19.9722 7.3035 21.1525 7.68219C22.7263 8.17891 24.1624 9.03465 25.3476 10.1806C26.9853 11.7642 28.0181 13.6773 28.4509 15.915C28.6624 17.0068 28.7115 18.1084 28.5345 19.2051C28.323 20.5281 27.2509 21.8412 25.8001 22.1166C24.364 22.392 23.0263 21.6494 22.446 20.2478C22.1952 19.6428 22.1263 19.0084 22.1263 18.3642C22.1263 17.7691 22.1263 17.1789 22.1263 16.5838C22.1263 16.5642 22.1263 16.5445 22.1214 16.5248L22.0919 16.5051Z" fill="#FEFEFE"/>
                        <path d="M17.9704 19.3721V18.482C17.9704 17.2574 17.9753 16.0279 17.9606 14.8033C17.9556 14.3066 17.8425 13.8344 17.4786 13.4607C17.1491 13.1312 16.6524 13.0377 16.2245 13.2197C15.9294 13.3476 15.6786 13.559 15.4966 13.8295C15.0638 14.4443 14.6999 15.1033 14.2917 15.7328C12.9737 17.7443 11.7442 19.8098 10.4458 21.8312C10.3425 21.9935 10.254 21.9984 10.1655 21.8164C10.0573 21.6 9.96384 21.3787 9.87532 21.1525C9.49663 20.1984 9.29991 19.1853 9.28515 18.1574C9.25565 16.0131 9.85565 14.0705 11.2081 12.3984C12.536 10.7557 14.2425 9.68853 16.3278 9.30493C19.3425 8.75411 21.9589 9.59509 24.1376 11.7246C25.495 13.0476 26.2819 14.6902 26.5966 16.5639C26.7147 17.2525 26.7393 17.9557 26.6704 18.6492C26.6163 19.1607 26.4097 19.6082 26.0015 19.9377C25.6622 20.2082 25.2786 20.3607 24.8507 20.1885C24.3983 20.0115 24.1671 19.6426 24.0884 19.1705C23.9753 18.482 23.9901 17.7885 24.0048 17.0951C24.0147 16.5049 24.054 15.9049 23.9261 15.3197C23.7737 14.641 23.3802 14.159 22.677 13.982C22.3376 13.8984 22.0229 14.0115 21.7278 14.1689C21.2802 14.4098 20.9409 14.7738 20.6556 15.182C20.1442 15.9049 19.7015 16.6771 19.2294 17.4295C18.836 18.059 18.4425 18.6885 18.0491 19.318C18.0343 19.3377 18.0196 19.3623 18.0048 19.382L17.9704 19.3721Z" fill="#2B6AFF"/>
                    </g>
                </g>
            </g>
        </g>
    </g>
    <defs>
        <clipPath id="clip0_2072_1051">
            <rect width="36" height="36" rx="18" fill="white"/>
        </clipPath>
        <clipPath id="clip1_2072_1051">
            <rect width="36" height="36" fill="white"/>
        </clipPath>
        <clipPath id="clip2_2072_1051">
            <rect width="36" height="36" fill="white"/>
        </clipPath>
        <clipPath id="clip3_2072_1051">
            <rect width="36" height="36" fill="white"/>
        </clipPath>
    </defs>
</svg>
