<svg viewBox="0 0 652 652" fill="none" xmlns="http://www.w3.org/2000/svg">
<circle cx="326" cy="326" r="46.0417" stroke="white" stroke-width="3"/>
<circle cx="326" cy="326" r="96.0238" stroke="white" stroke-width="2"/>
<circle cx="326" cy="326" r="143.565" stroke="white" stroke-width="2"/>
<circle cx="326" cy="326" r="325" stroke="white" stroke-opacity="0.4" stroke-width="2"/>
<circle cx="326" cy="326" r="189.167" stroke="white" stroke-opacity="0.8" stroke-width="2"/>
<circle cx="326" cy="326" r="249.321" stroke="white" stroke-opacity="0.6" stroke-width="2"/>
<circle cx="544.224" cy="326" r="46.0417" fill="black" stroke="white" stroke-width="3"/>
<circle cx="107.776" cy="326" r="46.0417" fill="black" stroke="white" stroke-width="3"/>
<path d="M90.6243 335.186L85.5243 327.166H88.6243L93.8443 335.186H90.6243ZM87.3243 333.226C85.9643 333.226 84.7643 332.919 83.7243 332.306C82.6843 331.692 81.871 330.846 81.2843 329.766C80.6976 328.672 80.4043 327.412 80.4043 325.986C80.4043 324.559 80.6976 323.306 81.2843 322.226C81.871 321.132 82.6843 320.279 83.7243 319.666C84.7643 319.052 85.9643 318.746 87.3243 318.746C88.6976 318.746 89.9043 319.052 90.9443 319.666C91.9843 320.279 92.791 321.132 93.3643 322.226C93.951 323.306 94.2443 324.559 94.2443 325.986C94.2443 327.412 93.951 328.672 93.3643 329.766C92.791 330.846 91.9843 331.692 90.9443 332.306C89.9043 332.919 88.6976 333.226 87.3243 333.226ZM87.3243 330.806C88.1776 330.806 88.911 330.612 89.5243 330.226C90.151 329.826 90.6376 329.266 90.9843 328.546C91.331 327.826 91.5043 326.972 91.5043 325.986C91.5043 324.986 91.331 324.132 90.9843 323.426C90.6376 322.706 90.151 322.152 89.5243 321.766C88.911 321.379 88.1776 321.186 87.3243 321.186C86.4843 321.186 85.751 321.379 85.1243 321.766C84.4976 322.152 84.011 322.706 83.6643 323.426C83.3176 324.132 83.1443 324.986 83.1443 325.986C83.1443 326.972 83.3176 327.826 83.6643 328.546C84.011 329.266 84.4976 329.826 85.1243 330.226C85.751 330.612 86.4843 330.806 87.3243 330.806ZM101.968 333.226C100.941 333.226 100.008 333.019 99.1679 332.606C98.3279 332.192 97.6612 331.572 97.1679 330.746C96.6746 329.919 96.4279 328.866 96.4279 327.586V318.986H99.1279V327.606C99.1279 328.299 99.2412 328.886 99.4679 329.366C99.6946 329.832 100.021 330.179 100.448 330.406C100.888 330.632 101.408 330.746 102.008 330.746C102.621 330.746 103.141 330.632 103.568 330.406C104.008 330.179 104.341 329.832 104.568 329.366C104.795 328.886 104.908 328.299 104.908 327.606V318.986H107.608V327.586C107.608 328.866 107.355 329.919 106.848 330.746C106.341 331.572 105.655 332.192 104.788 332.606C103.935 333.019 102.995 333.226 101.968 333.226ZM115.059 333.226C114.046 333.226 113.139 333.052 112.339 332.706C111.553 332.359 110.926 331.852 110.459 331.186C110.006 330.519 109.773 329.712 109.759 328.766H112.619C112.633 329.179 112.739 329.552 112.939 329.886C113.139 330.219 113.413 330.486 113.759 330.686C114.119 330.872 114.546 330.966 115.039 330.966C115.466 330.966 115.833 330.899 116.139 330.766C116.459 330.619 116.706 330.419 116.879 330.166C117.053 329.912 117.139 329.612 117.139 329.266C117.139 328.866 117.039 328.532 116.839 328.266C116.653 327.999 116.386 327.772 116.039 327.586C115.706 327.399 115.313 327.232 114.859 327.086C114.419 326.926 113.953 326.759 113.459 326.586C112.353 326.226 111.506 325.746 110.919 325.146C110.346 324.546 110.059 323.752 110.059 322.766C110.059 321.926 110.259 321.206 110.659 320.606C111.073 320.006 111.639 319.546 112.359 319.226C113.079 318.906 113.899 318.746 114.819 318.746C115.766 318.746 116.593 318.912 117.299 319.246C118.019 319.566 118.586 320.032 118.999 320.646C119.426 321.259 119.646 321.979 119.659 322.806H116.779C116.766 322.499 116.673 322.212 116.499 321.946C116.339 321.666 116.113 321.446 115.819 321.286C115.526 321.112 115.179 321.026 114.779 321.026C114.433 321.012 114.113 321.066 113.819 321.186C113.539 321.306 113.313 321.486 113.139 321.726C112.979 321.952 112.899 322.239 112.899 322.586C112.899 322.919 112.979 323.199 113.139 323.426C113.313 323.652 113.546 323.852 113.839 324.026C114.133 324.186 114.479 324.339 114.879 324.486C115.279 324.619 115.713 324.759 116.179 324.906C116.873 325.146 117.513 325.432 118.099 325.766C118.686 326.086 119.153 326.506 119.499 327.026C119.846 327.546 120.019 328.232 120.019 329.086C120.019 329.819 119.826 330.499 119.439 331.126C119.053 331.752 118.493 332.259 117.759 332.646C117.039 333.032 116.139 333.226 115.059 333.226ZM122.31 332.986V318.986H126.99C128.616 318.986 129.956 319.279 131.01 319.866C132.076 320.439 132.863 321.252 133.37 322.306C133.89 323.346 134.15 324.572 134.15 325.986C134.15 327.399 133.89 328.632 133.37 329.686C132.863 330.726 132.083 331.539 131.03 332.126C129.976 332.699 128.63 332.986 126.99 332.986H122.31ZM125.01 330.666H126.85C127.996 330.666 128.896 330.479 129.55 330.106C130.216 329.732 130.69 329.199 130.97 328.506C131.25 327.799 131.39 326.959 131.39 325.986C131.39 324.999 131.25 324.159 130.97 323.466C130.69 322.759 130.216 322.219 129.55 321.846C128.896 321.472 127.996 321.286 126.85 321.286H125.01V330.666Z" fill="white"/>
<path d="M530.368 333.226C529.341 333.226 528.408 333.019 527.568 332.606C526.728 332.192 526.061 331.572 525.568 330.746C525.075 329.919 524.828 328.866 524.828 327.586V318.986H527.528V327.606C527.528 328.299 527.641 328.886 527.868 329.366C528.095 329.832 528.421 330.179 528.848 330.406C529.288 330.632 529.808 330.746 530.408 330.746C531.021 330.746 531.541 330.632 531.968 330.406C532.408 330.179 532.741 329.832 532.968 329.366C533.195 328.886 533.308 328.299 533.308 327.606V318.986H536.008V327.586C536.008 328.866 535.755 329.919 535.248 330.746C534.741 331.572 534.055 332.192 533.188 332.606C532.335 333.019 531.395 333.226 530.368 333.226ZM543.459 333.226C542.446 333.226 541.539 333.052 540.739 332.706C539.953 332.359 539.326 331.852 538.859 331.186C538.406 330.519 538.173 329.712 538.159 328.766H541.019C541.033 329.179 541.139 329.552 541.339 329.886C541.539 330.219 541.813 330.486 542.159 330.686C542.519 330.872 542.946 330.966 543.439 330.966C543.866 330.966 544.233 330.899 544.539 330.766C544.859 330.619 545.106 330.419 545.279 330.166C545.453 329.912 545.539 329.612 545.539 329.266C545.539 328.866 545.439 328.532 545.239 328.266C545.053 327.999 544.786 327.772 544.439 327.586C544.106 327.399 543.713 327.232 543.259 327.086C542.819 326.926 542.353 326.759 541.859 326.586C540.753 326.226 539.906 325.746 539.319 325.146C538.746 324.546 538.459 323.752 538.459 322.766C538.459 321.926 538.659 321.206 539.059 320.606C539.473 320.006 540.039 319.546 540.759 319.226C541.479 318.906 542.299 318.746 543.219 318.746C544.166 318.746 544.993 318.912 545.699 319.246C546.419 319.566 546.986 320.032 547.399 320.646C547.826 321.259 548.046 321.979 548.059 322.806H545.179C545.166 322.499 545.073 322.212 544.899 321.946C544.739 321.666 544.513 321.446 544.219 321.286C543.926 321.112 543.579 321.026 543.179 321.026C542.833 321.012 542.513 321.066 542.219 321.186C541.939 321.306 541.713 321.486 541.539 321.726C541.379 321.952 541.299 322.239 541.299 322.586C541.299 322.919 541.379 323.199 541.539 323.426C541.713 323.652 541.946 323.852 542.239 324.026C542.533 324.186 542.879 324.339 543.279 324.486C543.679 324.619 544.113 324.759 544.579 324.906C545.273 325.146 545.913 325.432 546.499 325.766C547.086 326.086 547.553 326.506 547.899 327.026C548.246 327.546 548.419 328.232 548.419 329.086C548.419 329.819 548.226 330.499 547.839 331.126C547.453 331.752 546.893 332.259 546.159 332.646C545.439 333.032 544.539 333.226 543.459 333.226ZM550.71 332.986V318.986H555.39C557.016 318.986 558.356 319.279 559.41 319.866C560.476 320.439 561.263 321.252 561.77 322.306C562.29 323.346 562.55 324.572 562.55 325.986C562.55 327.399 562.29 328.632 561.77 329.686C561.263 330.726 560.483 331.539 559.43 332.126C558.376 332.699 557.03 332.986 555.39 332.986H550.71ZM553.41 330.666H555.25C556.396 330.666 557.296 330.479 557.95 330.106C558.616 329.732 559.09 329.199 559.37 328.506C559.65 327.799 559.79 326.959 559.79 325.986C559.79 324.999 559.65 324.159 559.37 323.466C559.09 322.759 558.616 322.219 557.95 321.846C557.296 321.472 556.396 321.286 555.25 321.286H553.41V330.666Z" fill="white"/>
</svg>
