<svg width="27" height="6" viewBox="0 0 27 6" fill="none" xmlns="http://www.w3.org/2000/svg">
    <path d="M1 2.6C0.779086 2.6 0.6 2.77909 0.6 3C0.6 3.22091 0.779086 3.4 1 3.4L1 2.6ZM26.2828 3.28284C26.4391 3.12663 26.4391 2.87336 26.2828 2.71716L23.7373 0.171571C23.581 0.0153612 23.3278 0.0153613 23.1716 0.171571C23.0154 0.327781 23.0154 0.581047 23.1716 0.737256L25.4343 3L23.1716 5.26274C23.0154 5.41895 23.0154 5.67222 23.1716 5.82843C23.3278 5.98463 23.581 5.98463 23.7373 5.82843L26.2828 3.28284ZM1 3.4L26 3.4L26 2.6L1 2.6L1 3.4Z" fill="white"/>
</svg>